<?xml version="1.0" encoding="UTF-8"?>
<svg width="16px" height="14px" viewBox="0 0 16 14" version="1.1" xmlns="http://www.w3.org/2000/svg" xmlns:xlink="http://www.w3.org/1999/xlink">
    <!-- Generator: Sketch 59.1 (86144) - https://sketch.com -->
    <!-- <title>形状复制 2备份 3</title> -->
    <desc>Created with Sketch.</desc>
    <g id="基金收藏" stroke="none" stroke-width="1" fill="none" fill-rule="evenodd">
        <g id="基金收藏入口12" transform="translate(-1396.000000, -915.000000)" fill="#FFFFFF" fill-rule="nonzero" stroke="#4E7CEE">
            <g id="system-guanzhu" transform="translate(1397.000000, 716.000000)">
                <path d="M1.49236705,207.464063 C0.550076601,206.667188 0.00626718997,205.479688 -6.82121026e-13,204.204688 C-0.00154616364,203.615625 0.107840787,203.046875 0.328177358,202.5125 C0.540700576,201.995313 0.846984038,201.534375 1.23452638,201.145312 C1.97054429,200.40625 2.93471212,200 3.94732275,200 C5.18026995,200 6.35539833,200.596875 7.01797071,201.559375 C7.67898043,200.596875 8.8494208,200 10.0698666,200 C11.0777892,200 12.0341437,200.404687 12.7654736,201.1375 C13.1545786,201.526563 13.4592994,201.9875 13.6718226,202.507812 C13.8921592,203.04375 14.0015462,203.614062 14,204.20625 C13.9952955,205.4875 13.4546114,206.675 12.5185716,207.465625 L12.5138836,207.46875 L7.01797071,212 L1.49236705,207.464063 Z" id="形状复制-2备份-3"></path>
            </g>
        </g>
    </g>
</svg>