<?xml version="1.0" encoding="UTF-8"?>
<svg width="16px" height="14px" viewBox="0 0 16 14" version="1.1" xmlns="http://www.w3.org/2000/svg" xmlns:xlink="http://www.w3.org/1999/xlink">
    <!-- Generator: Sketch 59.1 (86144) - https://sketch.com -->
    <!-- <title>形状复制 2备份 2</title> -->
    <desc>Created with Sketch.</desc>
    <g id="基金收藏" stroke="none" stroke-width="1" fill="none" fill-rule="evenodd">
        <g id="基金收藏入口12" transform="translate(-1396.000000, -875.000000)" fill="#4E7CEE" fill-rule="nonzero" stroke="#4E7CEE">
            <g id="system-guanzhu" transform="translate(1397.000000, 716.000000)">
                <path d="M1.49236705,167.464063 C0.550076601,166.667188 0.00626718997,165.479688 -6.82121026e-13,164.204688 C-0.00154616364,163.615625 0.107840787,163.046875 0.328177358,162.5125 C0.540700576,161.995313 0.846984038,161.534375 1.23452638,161.145312 C1.97054429,160.40625 2.93471212,160 3.94732275,160 C5.18026995,160 6.35539833,160.596875 7.01797071,161.559375 C7.67898043,160.596875 8.8494208,160 10.0698666,160 C11.0777892,160 12.0341437,160.404687 12.7654736,161.1375 C13.1545786,161.526563 13.4592994,161.9875 13.6718226,162.507812 C13.8921592,163.04375 14.0015462,163.614062 14,164.20625 C13.9952955,165.4875 13.4546114,166.675 12.5185716,167.465625 L12.5138836,167.46875 L7.01797071,172 L1.49236705,167.464063 Z" id="形状复制-2备份-2"></path>
            </g>
        </g>
    </g>
</svg>