<?xml version="1.0" encoding="UTF-8"?>
<svg width="16px" height="16px" viewBox="0 0 16 16" version="1.1" xmlns="http://www.w3.org/2000/svg" xmlns:xlink="http://www.w3.org/1999/xlink">
    <!-- Generator: Sketch 59.1 (86144) - https://sketch.com -->
    <desc>Created with Sketch.</desc>
    <g id="自选分组" stroke="none" stroke-width="1" fill="none" fill-rule="evenodd">
        <g id="我的收藏版本2" transform="translate(-752.000000, -154.000000)" fill-rule="nonzero">
            <g id="tab_style_1备份" transform="translate(88.000000, 154.000000)">
                <g id="编辑备份" transform="translate(664.000000, 0.000000)">
                    <rect id="矩形" fill="#000000" opacity="0" x="0" y="0" width="16" height="16"></rect>
                    <path d="M14.9984556,10.0471042 C14.8550198,9.99192576 14.6955081,9.996184 14.5552206,10.0589366 C14.414933,10.1216892 14.3054374,10.2377617 14.2509653,10.3814672 C13.2694981,12.949807 10.7621622,14.6764479 8.01235522,14.6764479 C4.33050194,14.6764479 1.33590734,11.6818533 1.33590733,8.0007722 C1.33590733,4.31891892 4.33050192,1.32432433 8.01235522,1.32432433 C11.4694981,1.32432433 14.392278,4.02007722 14.6664093,7.46177606 L15.2440154,7.41544402 L14.6733591,7.55984556 L15.2517375,7.52355213 L15.8216216,7.36988417 C15.4988417,3.33050194 12.0687259,0.166023172 8.01235522,0.166023172 C3.69189189,0.166023172 0.177606172,3.68030888 0.177606172,8.0007722 C0.177606172,12.3204633 3.69189189,15.834749 8.01235522,15.834749 C11.2401545,15.834749 14.1814672,13.8092664 15.3320463,10.7953668 C15.3872913,10.6519218 15.3831623,10.4923858 15.3205713,10.3519906 C15.2579802,10.2115953 15.1420762,10.1018909 14.9984556,10.0471042 Z" id="路径" fill="#4E7CEE"></path>
                    <path d="M7.51814672,4.24633205 L4.62316602,7.14054055 C4.61853281,7.14517375 4.61698841,7.15212356 4.61312741,7.15675675 C4.56667345,7.20490595 4.52903618,7.26083912 4.5019305,7.32200772 C4.4980695,7.33204633 4.49652509,7.34362934 4.49266409,7.35366795 C4.47953669,7.38996139 4.46563706,7.42625483 4.46023166,7.46563706 L3.89961391,11.2656371 C3.87376317,11.4466868 3.93459839,11.6293489 4.06384231,11.7587447 C4.19308623,11.8881405 4.3756768,11.9491902 4.55675675,11.9235521 L8.35675675,11.3629344 C8.39305019,11.357529 8.42625481,11.3444015 8.46023166,11.3328185 C8.47335906,11.3281853 8.48571428,11.3266409 8.4988417,11.3212355 C8.56072446,11.2941698 8.61742593,11.256543 8.66640927,11.2100386 C8.67104247,11.2054054 8.67722008,11.203861 8.68262548,11.1992278 L11.5776062,8.30501931 C12.4048234,7.47458452 12.4048234,6.13159309 11.5776062,5.3011583 L10.5220077,4.24633205 C9.72200772,3.44710425 8.31814672,3.44710425 7.51814672,4.24633205 L7.51814672,4.24633205 Z M5.15984556,10.6633205 L5.43783784,8.77451737 L7.04864866,10.3853282 L5.15984556,10.6633205 L5.15984556,10.6633205 Z M10.7583012,7.48571428 L8.27258687,9.97065637 L5.85173745,7.54980695 L8.33745173,5.06486486 C8.69961389,4.7027027 9.34054053,4.7027027 9.7027027,5.06486486 L10.7583012,6.11969113 C11.1337674,6.49763148 11.1337674,7.10777393 10.7583012,7.48571428 L10.7583012,7.48571428 Z" id="形状" fill="#4E7CEE"></path>
                </g>
            </g>
        </g>
    </g>
</svg>