<?xml version="1.0" standalone="no"?><!DOCTYPE svg PUBLIC "-//W3C//DTD SVG 1.1//EN" "http://www.w3.org/Graphics/SVG/1.1/DTD/svg11.dtd"><svg t="1588926206123" class="icon" viewBox="0 0 1170 1024" version="1.1" xmlns="http://www.w3.org/2000/svg" p-id="3109" xmlns:xlink="http://www.w3.org/1999/xlink" width="36.5625" height="32"><defs><style type="text/css"></style></defs><path d="M585.142857 1002.057143c-95.085714 0-314.514286-212.114286-409.6-321.828572C65.828571 541.257143 36.571429 468.114286 36.571429 336.457143 36.571429 175.542857 175.542857 36.571429 343.771429 36.571429 438.857143 36.571429 526.628571 80.457143 585.142857 160.914286c58.514286-73.142857 146.285714-124.342857 241.371429-124.342857 168.228571 0 307.2 131.657143 307.2 299.885714 0 131.657143-29.257143 212.114286-138.971429 343.771428-95.085714 102.4-314.514286 321.828571-409.6 321.828572zM343.771429 109.714286C219.428571 109.714286 109.714286 212.114286 109.714286 336.457143c0 109.714286 14.628571 168.228571 124.342857 292.571428 124.342857 146.285714 307.2 299.885714 351.085714 299.885715s226.742857-153.6 351.085714-299.885715c109.714286-131.657143 124.342857-182.857143 124.342858-292.571428 0-124.342857-102.4-226.742857-234.057143-226.742857-95.085714 0-175.542857 51.2-212.114286 131.657143-14.628571 29.257143-58.514286 29.257143-65.828571 0C512 160.914286 431.542857 109.714286 343.771429 109.714286z" p-id="3110"></path></svg>