<svg t="1598930856355" class="icon" viewBox="0 0 1024 1024" version="1.1" xmlns="http://www.w3.org/2000/svg" p-id="61741" width="32" height="32"><path d="M89.216 201.216L484.992 3.392a32 32 0 0 1 28.608 0l395.776 197.824a32 32 0 0 1 0 57.28L513.6 456.576a32 32 0 0 1-28.608 0L89.216 258.496a32 32 0 0 1 0-57.28zM781.44 540.16a204.416 204.416 0 0 0-96 384.832l-171.52 87.744a32 32 0 0 1-29.184 0l-435.328-222.72A32 32 0 0 1 32 761.536V359.552a32 32 0 0 1 46.336-28.608l406.656 203.392a32 32 0 0 0 28.608 0l406.656-203.392a32 32 0 0 1 46.336 28.608v298.24A204.416 204.416 0 0 0 781.44 540.16z m107.84 287.744l77.824 77.824a34.048 34.048 0 0 1-48.192 48.192l-83.968-83.968a136.32 136.32 0 1 1 54.4-41.984h-0.064z" p-id="61742"></path></svg>