<svg t="1598931159262" class="icon" viewBox="0 0 1024 1024" version="1.1" xmlns="http://www.w3.org/2000/svg" p-id="75450" width="32" height="32"><path d="M820.71 843.5H672.3v-54.17H376.69v54.17h-171.4c-26.62 0-48.41 21.78-48.41 48.41 0 26.62 21.78 48.41 48.41 48.41h615.43c26.62 0 48.41-21.78 48.41-48.41-0.02-26.63-21.8-48.41-48.42-48.41zM849.32 80.44H176.67c-58.43 0-106.23 47.8-106.23 106.23v443.59c0 58.43 47.8 106.23 106.23 106.23h672.65c58.43 0 106.23-47.8 106.23-106.23V186.67c0-58.43-47.8-106.23-106.23-106.23z m-58.66 242.61L598.85 547.1a37.83 37.83 0 0 1-27.48 13.2c-10.58 0.36-20.87-3.78-28.29-11.37L401.45 403.97 294.18 545.36c-7.44 9.8-18.73 14.96-30.16 14.96-7.96 0-15.99-2.5-22.83-7.69-16.64-12.62-19.89-36.34-7.27-52.98L367.7 323.31a37.822 37.822 0 0 1 57.18-3.58l143.4 146.77L733.2 273.86c13.58-15.87 37.45-17.72 53.32-4.13 15.87 13.58 17.72 37.45 4.14 53.32z" p-id="75451"></path></svg>