<svg t="1598930007951" class="icon" viewBox="0 0 1024 1024" version="1.1" xmlns="http://www.w3.org/2000/svg" p-id="8922" width="32" height="32"><path d="M570.262982 21.324709a82.162518 82.162518 0 0 0-110.395217 0L13.605825 444.96148a41.154401 41.154401 0 0 0 55.100087 61.146468l7.119126-6.729037v442.214765A82.308802 82.308802 0 0 0 158.182601 1024h239.612234v-247.852867a57.976994 57.976994 0 0 1 58.025755-58.025755h112.735753a58.025755 58.025755 0 0 1 58.025754 58.025755V1024h245.268527a82.406324 82.406324 0 0 0 82.357563-82.406324v-436.802279c18.285427 16.578787 44.226353 15.310997 59.488589-1.657879a41.154401 41.154401 0 0 0-3.023191-58.172038L570.311744 21.324709z" p-id="8923"></path></svg>