<svg t="1598930372048" class="icon" viewBox="0 0 1024 1024" version="1.1" xmlns="http://www.w3.org/2000/svg" p-id="25421" width="32" height="32"><path d="M855.771429 0H162.596571C92.964571 0 36.571429 56.32 36.571429 126.025143v771.949714C36.571429 967.606857 92.891429 1024 162.596571 1024H855.771429c69.632 0 126.025143-56.32 126.025142-126.025143V126.025143C981.796571 56.393143 925.476571 0 855.771429 0zM272.822857 267.849143h236.397714a47.250286 47.250286 0 0 1 0 94.500571H272.822857a47.250286 47.250286 0 0 1 0-94.500571z m393.874286 488.301714H272.896a47.250286 47.250286 0 0 1 0-94.500571h393.801143a47.250286 47.250286 0 0 1 0 94.500571z m78.774857-196.900571H272.896a47.250286 47.250286 0 0 1 0-94.500572h472.576a47.250286 47.250286 0 0 1 0 94.500572z" p-id="25422"></path></svg>