<?xml version="1.0" encoding="UTF-8"?>
<svg width="12px" height="15px" viewBox="0 0 12 15" version="1.1" xmlns="http://www.w3.org/2000/svg" xmlns:xlink="http://www.w3.org/1999/xlink">
    <!-- Generator: Sketch 59.1 (86144) - https://sketch.com -->
    <desc>Created with Sketch.</desc>
    <g id="自选分组" stroke="none" stroke-width="1" fill="none" fill-rule="evenodd">
        <g id="我的收藏批量导入2" transform="translate(-535.000000, -355.000000)" fill="#4E7CEE" fill-rule="nonzero">
            <g id="编组-10" transform="translate(445.000000, 252.000000)">
                <g id="编组-3" transform="translate(56.000000, 77.000000)">
                    <g id="excel" transform="translate(34.000000, 23.000000)">
                        <path d="M11.5612496,6.52875036 L8.47124968,3.43875045 C8.18970403,3.1575176 7.80794414,2.99968754 7.40999971,3 L1.87499992,3 C0.839466054,3 0,3.83946654 0,4.87500041 L0,16.1250001 C0,17.1605339 0.839466054,18 1.87499992,18 L10.1249996,18 C11.1605335,18 12,17.1605339 12,16.1250001 L12,7.59000032 C12.0003125,7.19205589 11.8424824,6.810296 11.5612496,6.52875036 L11.5612496,6.52875036 Z M8,4 L11,7 L8.4552352,7 C8.33449931,7 8.21870846,6.95203786 8.13333529,6.86666469 C8.04796213,6.78129153 8,6.66550067 8,6.54476478 L8,4 Z M11,15.9166667 C11,16.5149751 10.5203051,17 9.92857143,17 L2.07142857,17 C1.47969491,17 1,16.5149751 1,15.9166667 L1,5.08333333 C1,4.48502485 1.47969491,4 2.07142857,4 L7.42857142,4 L7.42857142,6.52777777 C7.42857142,7.12608625 7.90826633,7.61111111 8.5,7.61111111 L11,7.61111111 L11,15.9166667 Z" id="形状"></path>
                        <path d="M7.54790034,8.64333333 L6.76415578,8.64333333 L5.67562167,10.239078 C5.52051843,10.4576704 5.3763759,10.6854023 5.24383649,10.9212589 C5.10908553,10.6671411 4.96254488,10.4208055 4.80479438,10.183227 L3.81422835,8.64732268 L2.94702952,8.64732268 L4.80479438,11.5156738 L2.69666667,14.6433333 L3.5638655,14.6433333 L4.93179004,12.5529078 C4.98621674,12.4691312 5.06967103,12.3215248 5.19303822,12.1021099 C5.27649251,12.2457269 5.3526899,12.3813652 5.43251573,12.5010461 L6.8040687,14.6433333 L7.69666667,14.6433333 L5.63208031,11.451844 L7.54790034,8.64333333 Z" id="路径"></path>
                    </g>
                </g>
            </g>
        </g>
    </g>
</svg>