<?xml version="1.0" encoding="UTF-8"?>
<svg width="20px" height="15px" viewBox="0 0 20 15" version="1.1" xmlns="http://www.w3.org/2000/svg" xmlns:xlink="http://www.w3.org/1999/xlink">
    <!-- Generator: Sketch 59.1 (86144) - https://sketch.com -->
    <title>交易结果展示与比较</title>
    <desc>Created with Sketch.</desc>
    <g id="基金对比" stroke="none" stroke-width="1" fill="none" fill-rule="evenodd">
        <g id="不同类型比较提示" transform="translate(-149.000000, -101.000000)" fill="#EC221C" fill-rule="nonzero">
            <g id="编组-6" transform="translate(76.000000, 82.000000)">
                <g id="交易结果展示与比较" transform="translate(73.000000, 19.000000)">
                    <g id="编组">
                        <path d="M10.3942334,9.82074711 C11.8158146,10.5280348 13.0500557,11.064473 14.3922871,11.2440068 C15.3936386,11.3764875 15.9718218,11.0261014 15.9718218,10.3658698 C15.9718218,9.70636204 15.4847374,9.3740744 14.5994633,9.07581185 L12.8583018,8.47421919 C12.3424508,8.30032563 11.8484803,8.06884921 11.3860259,7.78430614 L15.1636794,0.016449 C16.7064808,0.0548177259 18.2279739,0.385657494 19.64515,0.990869849 L18.8752186,4.1595418 C17.5080028,3.547814 16.1922194,3.17643369 15.0490656,3.17643369 C14.0734274,3.17643369 13.530514,3.3697252 13.530514,3.97131786 C13.530514,4.63082558 13.9882117,4.84076767 14.8734858,5.14120203 L16.4897539,5.71166535 C18.9016724,6.55288157 20,7.66339998 20,9.76571941 C20,12.6484358 17.9554152,14.4807347 14.5678671,14.4807347 C12.7774886,14.4807347 10.8827788,13.9587753 8.88888889,12.9148507 L10.3942334,9.82074711 Z" id="路径" opacity="0.600981213"></path>
                        <polygon id="路径" points="6.68908845 13.9450204 0 0.016449 3.62714542 0.016449 6.94627107 7.69568512 10.3567278 0.016449 13.8888889 0.016449 7.11357819 13.9450204"></polygon>
                    </g>
                </g>
            </g>
        </g>
    </g>
</svg>